<svg width="140" height="52" viewBox="0 0 140 52" fill="none" xmlns="http://www.w3.org/2000/svg">
<g clip-path="url(#clip0)">
<path fill-rule="evenodd" clip-rule="evenodd" d="M42.1753 29.1031C42.1753 29.6525 41.9711 30.0585 41.5627 30.3186C41.1543 30.5787 40.5903 30.71 39.8707 30.71H36.0005V27.4524H39.7661C40.6097 27.4524 41.2223 27.5982 41.6064 27.8875C41.9857 28.1744 42.1753 28.5658 42.1753 29.0593V29.1031ZM36.0005 21.6179H39.2143C39.9047 21.6179 40.4347 21.7492 40.8018 22.0093C41.1688 22.267 41.3512 22.6462 41.3512 23.1397V23.1811C41.3512 23.7305 41.1397 24.1292 40.7167 24.3771C40.2961 24.6227 39.7224 24.7466 39.0028 24.7466H36.0005V21.6179ZM42.6323 25.8236C43.488 26.1494 44.1614 26.5894 44.6549 27.1461C45.146 27.7028 45.3891 28.4758 45.3891 29.4604V29.5042C45.3891 30.18 45.2603 30.7732 45.0001 31.2813C44.74 31.7869 44.3657 32.2099 43.8794 32.5478C43.3957 32.8882 42.8122 33.141 42.1267 33.3087C41.446 33.4789 40.6899 33.564 39.8609 33.564H32.8304V18.7614H39.6908C41.3925 18.7614 42.6809 19.199 43.5513 20.0718C44.2295 20.75 44.565 21.5887 44.565 22.5879V22.6316C44.565 23.0546 44.5139 23.429 44.407 23.7523C44.3024 24.0781 44.1614 24.3698 43.9864 24.63C43.8138 24.8925 43.6096 25.1186 43.3787 25.3155C43.1453 25.5124 42.8997 25.685 42.6323 25.8236ZM49.4764 33.564V18.7614H52.734V33.564H49.4764ZM67.6015 27.8756V18.7617H70.8153V33.5642H68.0488L60.8772 24.1561V33.5642H57.6634V18.7617H60.6657L67.6015 27.8756ZM80.6753 18.6571H83.6777L90.0227 33.5642H86.6168L85.2651 30.2459H79.0028L77.6511 33.5642H74.3328L80.6753 18.6571ZM80.1673 27.3675H84.1007L82.1364 22.5687L80.1673 27.3675ZM103.476 27.8756V18.7617H106.69V33.5642H103.921L96.7491 24.1561V33.5642H93.5377V18.7617H96.5376L103.476 27.8756ZM120.659 30.3494C121.245 30.0407 121.826 29.6153 122.405 29.0829L124.476 31.1736C124.097 31.5844 123.701 31.9491 123.292 32.2748C122.884 32.5982 122.436 32.8753 121.95 33.1111C121.464 33.3396 120.932 33.5195 120.353 33.6386C119.777 33.7578 119.128 33.8185 118.408 33.8185C117.324 33.8185 116.315 33.6216 115.384 33.2278C114.453 32.8315 113.651 32.2918 112.975 31.6087C112.299 30.9232 111.769 30.1161 111.39 29.185C111.008 28.2563 110.818 27.262 110.818 26.2045V26.1632C110.818 25.1057 111.008 24.1163 111.39 23.1925C111.769 22.2687 112.299 21.4592 112.975 20.7614C113.651 20.0637 114.46 19.5119 115.406 19.1108C116.351 18.7097 117.394 18.5079 118.535 18.5079C119.225 18.5079 119.857 18.5638 120.426 18.6781C121 18.7899 121.517 18.9455 121.982 19.1448C122.446 19.3417 122.876 19.58 123.273 19.862C123.666 20.144 124.034 20.4551 124.371 20.7906L122.3 23.1828C121.722 22.6601 121.131 22.2517 120.533 21.9551C119.935 21.6609 119.261 21.5102 118.513 21.5102C117.893 21.5102 117.319 21.6318 116.792 21.8724C116.262 22.1107 115.807 22.4413 115.428 22.8643C115.046 23.2873 114.749 23.7784 114.538 24.3326C114.329 24.8918 114.224 25.4874 114.224 26.1219V26.1632C114.224 26.7977 114.329 27.3957 114.538 27.9622C114.749 28.5237 115.041 29.0172 115.418 29.4402C115.79 29.8632 116.242 30.1987 116.77 30.4443C117.297 30.6922 117.878 30.8138 118.513 30.8138C119.361 30.8138 120.076 30.6606 120.659 30.3494ZM131.523 30.6677H139.56V33.563H128.309V18.7629H139.453V21.6607H131.523V24.6606H138.502V27.5608H131.523V30.6677ZM13.9546 12H13.9595L22.5362 20.5791L19.3783 23.7322L13.9571 18.3085L8.53585 23.7273L5.3828 20.5718L13.9546 12ZM0 25.9546L3.15548 22.7991L6.30853 25.9546L3.15305 29.1077L0 25.9546ZM13.9568 33.6014L19.378 28.1802L22.5359 31.3333V31.3357L13.9568 39.9124L5.38255 31.3357L5.37769 31.3333L8.5356 28.1827L13.9568 33.6014ZM21.6041 25.9575L24.7596 22.8021L27.9127 25.9551L24.7596 29.1106L21.6041 25.9575ZM13.9573 22.7525L17.1565 25.9517H17.1541L17.1565 25.9541V25.9566L13.9573 29.1582L10.7605 25.959L10.7556 25.9541L10.7605 25.9493L11.3196 25.3901L11.5895 25.1203L13.9573 22.7525Z" fill="white"/>
</g>
<defs>
<clipPath id="clip0">
<rect width="140" height="52" fill="white"/>
</clipPath>
</defs>
</svg>
