<svg width="137" height="52" viewBox="0 0 137 52" fill="none" xmlns="http://www.w3.org/2000/svg">
<g clip-path="url(#clip0)">
<path fill-rule="evenodd" clip-rule="evenodd" d="M63.1495 26.2283H64.8671C64.7488 27.3385 64.4894 28.3418 64.0845 29.2336C63.6795 30.1277 63.1585 30.8852 62.5193 31.5063C61.8709 32.1365 61.102 32.6279 60.2579 32.9464C59.3912 33.2854 58.4266 33.4537 57.3664 33.4537C55.9514 33.4537 54.7092 33.1966 53.6399 32.6825C52.573 32.1683 51.6835 31.4835 50.9737 30.6236C50.2684 29.7659 49.7383 28.7718 49.3834 27.6434C49.0308 26.5149 48.8534 25.3274 48.8534 24.083C48.8534 22.8363 49.0308 21.6487 49.3834 20.5203C49.7383 19.3919 50.2684 18.3955 50.9737 17.5264C51.6835 16.6596 52.573 15.9681 53.6399 15.4562C54.7092 14.942 55.9514 14.6849 57.3664 14.6849C58.2241 14.6849 59.0613 14.8101 59.8803 15.0649C60.6788 15.3083 61.4318 15.6882 62.1007 16.1887C62.7695 16.6892 63.3337 17.308 63.7682 18.0201C64.2164 18.7435 64.4985 19.5762 64.6168 20.5203H62.8992C62.7468 19.8287 62.4965 19.2122 62.153 18.6639C61.8209 18.1293 61.3931 17.6629 60.8904 17.2853C60.3921 16.9167 59.8393 16.6301 59.2478 16.4412C58.6404 16.2456 58.0034 16.1478 57.3664 16.15C56.172 16.15 55.1414 16.3776 54.286 16.8326C53.4261 17.2853 52.7231 17.8904 52.1749 18.6389C51.6288 19.3874 51.2239 20.2337 50.9646 21.1755C50.7006 22.1219 50.571 23.1002 50.571 24.083C50.571 25.0567 50.7006 26.0213 50.9646 26.9722C51.2239 27.9254 51.6288 28.7763 52.1749 29.5248C52.7231 30.2732 53.4261 30.8761 54.286 31.3311C55.1414 31.7838 56.172 32.0136 57.3664 32.0136C58.2059 32.0136 58.9657 31.8612 59.6391 31.5586C60.2966 31.2674 60.8904 30.8443 61.384 30.321C61.88 29.7819 62.2827 29.1631 62.5693 28.4897C62.8719 27.7912 63.0653 27.0359 63.1495 26.2283ZM78.4579 23.9169C78.7264 24.7518 78.8606 25.6391 78.8606 26.5809C78.8606 27.525 78.7264 28.4146 78.4579 29.2472C78.1872 30.0799 77.7936 30.8102 77.2704 31.4312C76.7426 32.0591 76.0828 32.5642 75.3366 32.91C74.5722 33.2717 73.6918 33.4537 72.6976 33.4537C71.7057 33.4537 70.8253 33.2717 70.0586 32.91C69.3147 32.5642 68.655 32.0591 68.1272 31.4312C67.6039 30.8102 67.208 30.0799 66.9396 29.2472C66.6689 28.4146 66.5347 27.525 66.5347 26.5809C66.5347 25.6391 66.6689 24.7518 66.9396 23.9169C67.208 23.082 67.6039 22.3563 68.1272 21.7329C68.6572 21.1027 69.3147 20.5931 70.0586 20.2428C70.8253 19.872 71.7057 19.6854 72.6976 19.6854C73.6918 19.6854 74.5722 19.872 75.3366 20.2428C76.0828 20.5954 76.7403 21.1027 77.2704 21.7329C77.7936 22.3563 78.1872 23.082 78.4579 23.9169ZM77.2704 26.5809C77.2704 25.8939 77.1725 25.2137 76.9792 24.5494C76.7994 23.9078 76.5082 23.3072 76.1192 22.768C75.7439 22.247 75.2547 21.8171 74.6928 21.5054C74.1195 21.1846 73.4552 21.0254 72.6976 21.0254C71.94 21.0254 71.2758 21.1846 70.7025 21.5054C70.1405 21.8171 69.6514 22.247 69.2738 22.768C68.887 23.3072 68.5981 23.9078 68.4161 24.5494C68.2227 25.2091 68.1272 25.8939 68.1272 26.5809C68.1272 27.2725 68.2227 27.9505 68.4161 28.6148C68.5981 29.254 68.887 29.8569 69.2738 30.3961C69.6514 30.9193 70.1405 31.3493 70.7025 31.661C71.2758 31.9795 71.94 32.141 72.6976 32.141C73.4552 32.141 74.1195 31.9795 74.6928 31.661C75.2547 31.347 75.7439 30.9193 76.1192 30.3961C76.5082 29.8569 76.7994 29.254 76.9792 28.6148C77.1725 27.9505 77.2704 27.2725 77.2704 26.5809ZM81.2607 33.1011H82.8532V20.0676H81.2607V33.1011ZM81.2607 17.6152H82.8532V15.0649H81.2607V17.6152ZM95.4567 21.039C95.0859 20.6068 94.5922 20.2769 93.9802 20.0403C93.3637 19.806 92.6016 19.6854 91.6939 19.6854C90.7907 19.6786 89.908 19.9288 89.1436 20.4066C88.3655 20.8866 87.8287 21.5236 87.5261 22.313H87.4737V20.0653H85.8835V33.1011H87.4737V25.4958C87.492 24.8542 87.5966 24.2627 87.79 23.7167C87.9834 23.1684 88.2518 22.6952 88.5999 22.2994C88.948 21.9035 89.3779 21.5827 89.8602 21.3666C90.3584 21.1391 90.9272 21.0254 91.5665 21.0254C92.2057 21.0254 92.7427 21.1255 93.1703 21.3279C93.6003 21.5304 93.9416 21.808 94.1941 22.1629C94.4466 22.5155 94.6241 22.9341 94.7242 23.4141C94.8243 23.8919 94.8743 24.4083 94.8743 24.9657V33.1011H96.4668V24.7132C96.4668 23.9374 96.3895 23.2412 96.2393 22.6156C96.0892 21.9945 95.8253 21.4667 95.4567 21.039ZM110.738 23.9169C111.006 24.7518 111.143 25.6391 111.143 26.5809C111.143 27.525 111.006 28.4146 110.738 29.2472C110.469 30.0799 110.071 30.8102 109.55 31.4312C109.023 32.0591 108.363 32.5642 107.619 32.91C106.852 33.2717 105.972 33.4537 104.98 33.4537C103.983 33.4537 103.103 33.2717 102.341 32.91C101.592 32.5642 100.935 32.0591 100.407 31.4312C99.8839 30.8102 99.4903 30.0799 99.2196 29.2472C98.9489 28.4146 98.8146 27.525 98.8146 26.5809C98.8146 25.6391 98.9489 24.7518 99.2196 23.9169C99.4903 23.082 99.8839 22.3563 100.407 21.7329C100.935 21.1027 101.595 20.5931 102.341 20.2428C103.103 19.872 103.983 19.6854 104.98 19.6854C105.972 19.6854 106.852 19.872 107.619 20.2428C108.363 20.5954 109.02 21.1027 109.55 21.7329C110.071 22.3563 110.469 23.082 110.738 23.9169ZM109.55 26.5809C109.55 25.8939 109.455 25.2137 109.261 24.5494C109.077 23.9078 108.79 23.3072 108.401 22.768C108.024 22.247 107.537 21.8171 106.975 21.5054C106.402 21.1846 105.737 21.0254 104.98 21.0254C104.222 21.0254 103.556 21.1846 102.985 21.5054C102.421 21.8171 101.934 22.247 101.556 22.768C101.169 23.3072 100.878 23.9078 100.698 24.5494C100.505 25.2091 100.407 25.8939 100.407 26.5809C100.407 27.2725 100.503 27.9505 100.698 28.6148C100.878 29.254 101.169 29.8569 101.556 30.3961C101.934 30.9193 102.421 31.3493 102.985 31.661C103.556 31.9795 104.222 32.141 104.98 32.141C105.737 32.141 106.402 31.9795 106.975 31.661C107.537 31.347 108.024 30.9193 108.401 30.3961C108.79 29.8569 109.079 29.254 109.261 28.6148C109.455 27.9505 109.55 27.2725 109.55 26.5809ZM127.207 19.6854C126.358 19.6831 125.523 19.9015 124.781 20.3179C124.024 20.7387 123.453 21.378 123.066 22.2379C122.827 21.378 122.361 20.7387 121.662 20.3179C120.964 19.897 120.184 19.6854 119.326 19.6854C118.266 19.6854 117.395 19.9152 116.712 20.3679C116.03 20.8229 115.479 21.4531 115.056 22.263H114.981V20.0653H113.518V33.1011H115.108V25.8234C115.108 25.1363 115.183 24.497 115.333 23.9169C115.486 23.3368 115.718 22.8317 116.03 22.4018C116.346 21.9695 116.76 21.6237 117.242 21.3916C117.738 21.1482 118.325 21.0254 118.998 21.0254C119.503 21.0254 119.933 21.1096 120.286 21.2779C120.623 21.4349 120.916 21.6715 121.132 21.9718C121.342 22.2675 121.494 22.6133 121.587 23.0069C121.681 23.405 121.726 23.8191 121.726 24.2582V33.1011H123.316V25.7232C123.316 25.1181 123.373 24.5311 123.482 23.9669C123.589 23.405 123.778 22.9023 124.051 22.4655C124.317 22.0287 124.69 21.6692 125.136 21.4167C125.589 21.1573 126.162 21.0254 126.854 21.0254C127.998 21.0254 128.797 21.3075 129.254 21.8717C129.707 22.4359 129.934 23.2549 129.934 24.3332V33.1011H131.527V24.2582C131.527 21.2119 130.087 19.6854 127.207 19.6854ZM134.582 33.1011H136.172V20.0676H134.582V33.1011ZM134.582 17.6152H136.172V15.0649H134.582V17.6152ZM35.8335 24.9156C35.8335 34.7959 27.7959 42.8312 17.9156 42.8312C8.03757 42.8312 0 34.7959 0 24.9156C0 15.0376 8.03757 7 17.9156 7C27.7959 7 35.8335 15.0376 35.8335 24.9156ZM34.8439 24.9156C34.8439 15.5813 27.25 7.98962 17.9156 7.98962C8.58357 7.98962 0.9919 15.5813 0.9919 24.9156C0.9919 34.2477 8.58357 41.8416 17.9156 41.8416C27.25 41.8416 34.8439 34.2477 34.8439 24.9156ZM28.5603 19.2486L28.2396 23.7167C28.9858 23.9442 29.4954 24.6313 29.4977 25.4116C29.4977 26.0986 29.1041 26.6878 28.5331 26.9859L29.8639 31.7793C30.2166 31.8612 30.4896 32.1592 30.4896 32.5369C30.4896 32.976 30.1324 33.3286 29.6956 33.3286C29.5022 33.3286 29.3316 33.2535 29.1951 33.1375L23.3529 34.9825C23.3165 35.6354 22.7591 36.1336 22.1062 36.0995C21.8172 36.0836 21.542 35.9608 21.3372 35.756L16.4005 37.965C16.4187 38.0674 16.4323 38.1698 16.4323 38.279C16.4323 39.2618 15.6338 40.0603 14.6533 40.0626C13.6682 40.0626 12.8674 39.264 12.8674 38.2812C12.8674 37.8035 13.0585 37.344 13.402 37.0073L8.7906 30.5781C8.34015 30.8238 7.83738 30.9512 7.3255 30.9535C5.57603 30.9489 4.16097 29.5293 4.16325 27.7799C4.1678 26.2761 5.23023 24.9793 6.70215 24.6813L6.19255 17.3785C5.7057 17.2989 5.37582 16.8417 5.45772 16.3571C5.53735 15.8725 5.99235 15.5449 6.4792 15.6222C6.65665 15.6541 6.82273 15.736 6.9524 15.8611L13.4907 12.592C13.352 11.9527 13.7615 11.3202 14.403 11.1837C14.4826 11.1655 14.5691 11.1564 14.651 11.1564C15.2903 11.1564 15.8067 11.6637 15.834 12.2962L26.4446 15.9885C26.8336 15.3265 27.5434 14.9193 28.3101 14.917C29.5136 14.917 30.4896 15.893 30.4896 17.0942C30.4896 18.2135 29.6432 19.1235 28.5603 19.2486ZM27.6503 23.6348L27.9643 19.2395C27.2499 19.1235 26.6357 18.6594 26.3331 18.0019L16.7941 19.4033C16.7304 19.7969 16.5483 20.1586 16.2731 20.4475L20.4181 25.9758C20.5342 25.9326 20.657 25.9053 20.7867 25.9053C21.2417 25.9053 21.6307 26.1851 21.7922 26.5809L25.9555 25.63C25.9464 25.5572 25.935 25.4867 25.935 25.4116C25.935 24.4493 26.6994 23.6712 27.6503 23.6348ZM21.7422 33.8086L20.7366 28.0779C20.3226 28.062 19.9517 27.8049 19.7857 27.4227L10.4832 27.6934C10.4855 27.723 10.4923 27.7548 10.4923 27.7867C10.4923 28.1279 10.424 28.4533 10.3239 28.7581L21.3076 34.1044C21.4282 33.9747 21.5761 33.8746 21.7422 33.8086ZM9.7552 25.7778C10.0782 26.16 10.3035 26.6128 10.4127 27.0996L19.7152 26.8312C19.7447 26.6401 19.8221 26.4649 19.9358 26.3216L15.7976 20.8024C15.5087 20.9662 15.1811 21.0549 14.8489 21.0572C14.5736 21.0572 14.3143 21.0003 14.08 20.9002L9.7552 25.7778ZM26.1488 16.9326L15.4541 13.213C15.3449 13.3131 15.2175 13.395 15.0764 13.4519L15.1833 17.1306C15.8886 17.2512 16.4687 17.7448 16.7076 18.416L26.1375 17.0282C26.1397 16.9941 26.1443 16.9645 26.1488 16.9326ZM7.29365 24.6222C7.30502 24.6222 7.31413 24.6199 7.3255 24.6199C7.9261 24.6199 8.51305 24.7928 9.0181 25.1181L13.2951 20.2928C13.0198 19.9448 12.8697 19.5171 12.8674 19.0734C12.8697 18.0838 13.6068 17.2489 14.5896 17.1215L14.4827 13.5156C14.2028 13.4769 13.9457 13.3359 13.7592 13.122L7.21403 16.3935C7.22085 16.4299 7.2254 16.464 7.2254 16.5027C7.2254 16.8303 7.04567 17.1169 6.7795 17.2694L7.29365 24.6222ZM16.1935 37.4054L21.0347 35.2396C21.0051 35.1327 20.9869 35.0235 20.9846 34.912C20.9846 34.887 20.9914 34.8574 20.9937 34.8301L9.99408 29.4816C9.80298 29.775 9.5641 30.0367 9.28882 30.2551L13.8934 36.6728C14.1278 36.5591 14.3871 36.4999 14.651 36.4977C15.3153 36.4977 15.8886 36.8662 16.1935 37.4054ZM27.9666 27.1679C27.8847 27.1793 27.8028 27.1929 27.7163 27.1929C27.0406 27.1906 26.4241 26.8062 26.1284 26.1987L21.8582 27.177C21.815 27.4227 21.6853 27.6502 21.4942 27.814L22.5407 33.7881C22.8478 33.8905 23.0981 34.1089 23.2369 34.3955L28.9175 32.6029C28.9153 32.5801 28.9039 32.5596 28.9039 32.5369C28.9039 32.2571 29.0586 32.0227 29.277 31.8817L27.9666 27.1679Z" fill="white"/>
</g>
<defs>
<clipPath id="clip0">
<rect width="137" height="52" fill="white"/>
</clipPath>
</defs>
</svg>
