<svg width="119" height="52" viewBox="0 0 119 52" fill="none" xmlns="http://www.w3.org/2000/svg">
<path fill-rule="evenodd" clip-rule="evenodd" d="M113.426 23.0796C113.426 23.0796 112.487 21.433 112.487 20.1591V18.0776C112.487 17.3941 113.002 16.8659 113.638 16.8659C114.273 16.8659 114.788 17.3941 114.788 18.0776V20.5942L116.597 20.0752C116.835 20.0068 116.999 19.7892 116.999 19.5417L116.998 17.798C116.998 16.3067 115.817 14.9397 114.364 14.9087H113.002C111.488 14.9087 110.278 16.2757 110.278 17.798V20.035C110.278 20.035 110.187 21.4951 111.246 23.4835L113.85 28.4855C113.85 28.4855 114.788 30.163 114.788 31.4369V33.9223C114.788 34.6058 114.273 35.134 113.638 35.134C113.002 35.134 112.487 34.6058 112.487 33.9535V30.163L110.678 30.6822C110.44 30.7504 110.276 30.9681 110.276 31.2155L110.278 34.3262C110.308 35.8175 111.458 37.0293 112.911 37.0914H114.273C115.787 37.0914 116.998 35.8485 116.998 34.3262V31.5612C116.998 31.5612 117.089 30.1011 116.029 28.1125L113.426 23.0796Z" fill="white"/>
<path fill-rule="evenodd" clip-rule="evenodd" d="M101.512 33.9224C101.512 34.5749 100.997 35.1029 100.362 35.1029H100.029C99.393 35.1029 98.909 34.5749 98.909 33.9224V15.126H96.729V34.4194C96.729 35.9419 97.94 37.0913 99.423 37.0913H101.088C102.511 37.0603 103.691 35.9107 103.691 34.4194L103.692 15.126H101.512V33.9224Z" fill="white"/>
<path fill-rule="evenodd" clip-rule="evenodd" d="M87.6429 33.5185C87.6429 34.3572 87.0979 34.668 86.4919 34.668H85.0689V17.363H86.4919C87.0979 17.363 87.6429 17.6738 87.6429 18.4814V33.5185ZM87.0979 15.126H82.8899V36.8738H87.0979C88.5809 36.8738 89.7619 35.6621 89.7919 34.1398V17.86C89.7619 16.3378 88.5809 15.126 87.0979 15.126Z" fill="white"/>
<path fill-rule="evenodd" clip-rule="evenodd" d="M73.7431 33.9224C73.7431 34.6059 73.2284 35.1341 72.5926 35.1341H72.2597C71.624 35.1029 71.1093 34.5749 71.1093 33.9224V18.0777C71.1093 17.4252 71.624 16.8969 72.2597 16.866H72.5926C73.2284 16.866 73.7431 17.3942 73.7431 18.0777V33.9224ZM73.3192 14.9086H71.6543C70.1406 14.9086 68.9299 16.1513 68.9299 17.6738V34.3572C68.9599 35.8486 70.1709 37.0913 71.6543 37.0913H73.3192C74.7723 37.0291 75.9227 35.8486 75.9528 34.3572V17.6738C75.9528 16.1825 74.7723 14.9707 73.3192 14.9086Z" fill="white"/>
<path fill-rule="evenodd" clip-rule="evenodd" d="M62.6923 15.1261H60.4665L58.4622 22.118L56.4577 15.1261H54.2319L57.3494 26L54.2319 36.8739H56.4577L58.4622 29.8817L60.4665 36.8739H62.6923L59.575 26L62.6923 15.1261Z" fill="white"/>
<path fill-rule="evenodd" clip-rule="evenodd" d="M48.3411 34.668H43.8003V26.5905L46.3574 26.5903C46.6045 26.5903 46.8219 26.4265 46.8901 26.1887L47.4163 24.3533H43.8003V17.3633L47.2821 17.363C47.5295 17.363 47.7469 17.1992 47.8151 16.9614L48.3411 15.1263H41.6206V36.8738H47.2909C47.5383 36.8738 47.7557 36.71 47.8238 36.4722L48.3411 34.668Z" fill="white"/>
<path fill-rule="evenodd" clip-rule="evenodd" d="M6.16926 10.7494V13.9613C6.16926 14.5131 6.38806 15.042 6.77796 15.4318L15.2856 23.9416L23.7932 15.4318C24.1829 15.042 24.4019 14.5131 24.4019 13.9613V10.7499L15.2856 19.8683L6.16926 10.7494ZM27.3213 16.8816C26.7698 16.8816 26.241 17.1006 25.8511 17.4904L17.3435 26L25.8444 34.5029C26.2343 34.8927 26.7633 35.112 27.3146 35.112H30.5254L21.4158 26L30.5321 16.8816H27.3213ZM0.0390625 16.8816L9.15516 26L0.0457611 35.112H3.25666C3.80786 35.112 4.33686 34.8927 4.72656 34.5029L13.2277 26L4.72006 17.4904C4.33016 17.1006 3.80136 16.8816 3.24996 16.8816H0.0390625ZM6.77796 36.5682C6.38806 36.9583 6.16926 37.4872 6.16926 38.0387V41.2506L15.2856 32.1319L24.4019 41.2501V38.0387C24.4019 37.4872 24.1829 36.9583 23.7932 36.5682L15.2856 28.0584L6.77796 36.5682Z" fill="white"/>
</svg>
