<svg width="109" height="52" viewBox="0 0 109 52" fill="none" xmlns="http://www.w3.org/2000/svg">
<path fill-rule="evenodd" clip-rule="evenodd" d="M11.8946 10C7.77912 10 4.44862 13.3306 4.44862 17.446V20.2367C3.00342 20.4983 1.55402 20.8472 1.55402 21.2998V35.8638C1.55402 35.8638 1.55402 36.2666 2.00672 36.4576C3.64712 37.1221 10.1006 39.4061 11.5831 39.9294C11.7741 40 11.8281 40 11.878 40C11.9486 40 11.9818 40 12.1728 39.9294C13.6554 39.4061 20.1255 37.1221 21.7658 36.4576C22.1853 36.2832 22.2019 35.8804 22.2019 35.8804V21.2998C22.2019 20.8472 20.7733 20.4817 19.324 20.2367V17.446C19.3447 13.3306 15.9934 10 11.8946 10ZM11.8946 13.559C14.3198 13.559 15.7858 15.0249 15.7858 17.4502V19.8754C13.0657 19.6844 10.7443 19.6844 8.00762 19.8754V17.4502C8.00762 15.0208 9.47352 13.559 11.8946 13.559ZM18.103 24.1777C18.103 23.7085 15.2625 23.4468 11.878 23.4468C8.49341 23.4468 5.65292 23.6919 5.68612 24.1611V33.2475C5.68612 33.3845 5.70691 33.4012 5.82731 33.4551C5.94771 33.5091 11.5997 35.5482 11.5997 35.5482C11.5997 35.5482 11.824 35.6354 11.8946 35.6354C11.961 35.6354 12.1894 35.5648 12.1894 35.5648C12.1894 35.5648 17.8414 33.5257 17.9618 33.4718C18.0864 33.4219 18.103 33.4053 18.103 33.2641V24.1777Z" fill="white"/>
<path fill-rule="evenodd" clip-rule="evenodd" d="M31.806 33.388V23.4376H28.1703V19.8694H39.506V23.4376H35.906V33.388H31.806Z" fill="white"/>
<path fill-rule="evenodd" clip-rule="evenodd" d="M46.8249 29.1372L48.6903 33.388V33.3841H53.3381L50.8892 28.6013C51.9727 28.0695 53.3222 26.8351 53.3222 24.5013C53.3222 21.969 51.6234 19.8694 48.4561 19.8694H41.2404V33.388H45.3404V29.1372H46.8249ZM47.8409 23.4495C48.5236 23.4495 49.1746 23.767 49.1746 24.5013C49.1746 25.2515 48.5236 25.569 47.8409 25.5849H45.3404V23.4495H47.8409Z" fill="white"/>
<path fill-rule="evenodd" clip-rule="evenodd" d="M55.4735 33.388V19.8694H65.7256V23.4376H59.5576V24.7712H65.5747V28.3394H59.5576V29.8238H65.7256V33.388H55.4735Z" fill="white"/>
<path fill-rule="evenodd" clip-rule="evenodd" d="M67.8569 33.4039V30.1532L73.0088 23.4534H67.8569V19.8853H78.407V23.1042L73.239 29.8397H78.558V33.4078L67.8569 33.4039Z" fill="white"/>
<path fill-rule="evenodd" clip-rule="evenodd" d="M86.96 19.6511C82.777 19.6511 79.558 22.5008 79.558 26.6525C79.558 30.8041 82.777 33.638 86.96 33.638C91.143 33.638 94.362 30.8041 94.362 26.6525C94.362 22.485 91.128 19.6511 86.96 19.6511ZM86.944 23.2669C88.913 23.2669 90.195 24.7672 90.195 26.6525C90.195 28.5378 88.929 30.0381 86.944 30.0381C84.975 30.0381 83.693 28.5378 83.693 26.6525C83.693 24.7672 84.975 23.2669 86.944 23.2669Z" fill="white"/>
<path fill-rule="evenodd" clip-rule="evenodd" d="M101.661 29.153L103.527 33.4039V33.3999H108.175L105.726 28.6172C106.809 28.0853 108.159 26.851 108.159 24.5171C108.159 21.9849 106.46 19.8853 103.293 19.8853H96.077V33.4039H100.177V29.153H101.661ZM102.693 23.4495C103.376 23.4495 104.027 23.767 104.027 24.5013C104.027 25.2515 103.38 25.569 102.693 25.5849H100.193V23.4495H102.693Z" fill="white"/>
</svg>
