<svg width="105" height="48" viewBox="0 0 105 48" fill="none" xmlns="http://www.w3.org/2000/svg">
<path fill-rule="evenodd" clip-rule="evenodd" d="M1.02946 12.831C0.29369 14.2235 0.29369 16.0465 0.29369 19.6923V28.1438C0.29369 31.7896 0.29369 33.6126 1.02946 35.0051C1.67667 36.2299 2.70938 37.2258 3.97958 37.8499C5.42362 38.5594 7.31397 38.5594 11.0946 38.5594H11.0947H19.8588H19.8588C23.6395 38.5594 25.5299 38.5594 26.9739 37.8499C28.244 37.2258 29.2768 36.2299 29.924 35.0051C30.6598 33.6126 30.6598 31.7896 30.6598 28.1438V28.1438V19.6923V19.6923C30.6598 16.0465 30.6598 14.2235 29.924 12.831C29.2768 11.6061 28.244 10.6103 26.9739 9.98613C25.5299 9.27661 23.6395 9.27661 19.8588 9.27661H11.0947C7.31398 9.27661 5.42362 9.27661 3.97958 9.98613C2.70938 10.6103 1.67667 11.6061 1.02946 12.831ZM13.9806 23.5624C14.3375 23.1203 14.0965 22.7431 13.518 22.9718C13.5124 22.9739 13.5066 22.9754 13.5008 22.977C13.4985 22.9776 13.4961 22.9782 13.4938 22.9788C12.3002 23.3302 10.6838 24.201 9.78652 25.0475C8.39602 26.3594 7.26854 27.9164 6.96637 29.8328C6.9201 30.1275 6.91104 30.4218 6.93668 30.7094C7.08535 32.381 8.48491 33.7931 10.5023 33.7545H20.8948C22.5981 33.7545 24.1235 32.5664 24.3453 30.9172C24.5687 29.2552 23.422 27.6202 21.7311 27.2754C20.2592 26.9752 18.7587 27.328 17.3367 27.6985C17.1152 27.7561 16.8658 27.8362 16.6001 27.9218L16.4388 27.9737C15.4332 28.296 14.2358 28.647 13.4345 28.1684C11.6426 27.0984 13.0631 24.6988 13.9806 23.5624ZM24.0167 17.0695C23.8683 15.3979 22.4685 13.9858 20.4512 14.0244H10.0587C8.35546 14.0244 6.82998 15.2125 6.60823 16.8617C6.38474 18.5237 7.5315 20.1587 9.22242 20.5034C10.6945 20.8037 12.1947 20.4508 13.6171 20.0804C13.8421 20.0218 14.096 19.94 14.3665 19.8528C15.4004 19.5197 16.6779 19.1081 17.5191 19.6105C19.3109 20.6805 17.8904 23.0801 16.9729 24.2165C16.6159 24.6586 16.857 25.0357 17.4355 24.8071C17.4434 24.8042 17.4517 24.8023 17.4595 24.8C18.6534 24.4486 20.2697 23.5779 21.1669 22.7314C22.5574 21.4194 23.685 19.8625 23.9871 17.946C24.0336 17.6515 24.0424 17.3571 24.0167 17.0695Z" fill="white"/>
<path d="M3.97958 37.8499L3.92657 37.9502L3.97958 37.8499ZM1.02945 35.0051L0.925392 35.0562L1.02945 35.0051ZM29.924 35.0051L29.8199 34.9539L29.924 35.0051ZM26.9739 37.8499L26.9209 37.7495L26.9739 37.8499ZM26.9739 9.98612L27.0269 9.88577L26.9739 9.98612ZM3.97958 9.98612L3.92657 9.88577L3.97958 9.98612ZM1.02945 12.831L0.925392 12.7799L1.02945 12.831ZM11.0947 9.38922H19.8588V9.16397H11.0947V9.38922ZM30.543 19.6923V28.1438H30.7766V19.6923H30.543ZM19.8588 38.4468H11.0947V38.6721H19.8588V38.4468ZM0.410477 28.1438V19.6923H0.176891V28.1438H0.410477ZM11.0947 38.4468C9.20239 38.4468 7.79021 38.4467 6.67039 38.3585C5.55194 38.2703 4.73541 38.0949 4.0326 37.7495L3.92657 37.9502C4.66779 38.3145 5.51846 38.4938 6.65136 38.583C7.78291 38.6722 9.20625 38.6721 11.0947 38.6721V38.4468ZM0.176891 28.1438C0.176891 29.9648 0.176798 31.3374 0.269251 32.4285C0.361809 33.521 0.54772 34.3414 0.925392 35.0562L1.13352 34.9539C0.775419 34.2761 0.593444 33.4888 0.502066 32.4102C0.41057 31.3303 0.410477 29.9685 0.410477 28.1438H0.176891ZM4.0326 37.7495C2.78437 37.1363 1.76952 36.1576 1.13352 34.9539L0.925392 35.0562C1.5838 36.3023 2.63437 37.3154 3.92657 37.9502L4.0326 37.7495ZM30.543 28.1438C30.543 29.9685 30.5429 31.3303 30.4514 32.4102C30.36 33.4888 30.178 34.2761 29.8199 34.9539L30.028 35.0562C30.4058 34.3414 30.5917 33.521 30.6842 32.4285C30.7767 31.3374 30.7766 29.9648 30.7766 28.1438H30.543ZM19.8588 38.6721C21.7472 38.6721 23.1706 38.6722 24.302 38.583C25.4349 38.4938 26.2857 38.3145 27.0269 37.9502L26.9209 37.7495C26.218 38.0949 25.4015 38.2703 24.283 38.3585C23.1632 38.4467 21.7511 38.4468 19.8588 38.4468V38.6721ZM29.8199 34.9539C29.184 36.1576 28.1691 37.1363 26.9209 37.7495L27.0269 37.9502C28.3191 37.3154 29.3697 36.3023 30.028 35.0562L29.8199 34.9539ZM19.8588 9.38922C21.7511 9.38922 23.1632 9.38931 24.283 9.47755C25.4015 9.56566 26.218 9.74115 26.9209 10.0865L27.0269 9.88577C26.2857 9.52157 25.4349 9.34229 24.302 9.25304C23.1706 9.16388 21.7472 9.16397 19.8588 9.16397V9.38922ZM30.7766 19.6923C30.7766 17.8712 30.7767 16.4987 30.6842 15.4075C30.5917 14.315 30.4058 13.4947 30.028 12.7799L29.8199 12.8821C30.178 13.5599 30.36 14.3473 30.4514 15.4258C30.5429 16.5057 30.543 17.8675 30.543 19.6923H30.7766ZM26.9209 10.0865C28.1691 10.6998 29.184 11.6784 29.8199 12.8821L30.028 12.7799C29.3697 11.5338 28.3191 10.5207 27.0269 9.88577L26.9209 10.0865ZM11.0947 9.16397C9.20625 9.16397 7.78291 9.16388 6.65136 9.25304C5.51846 9.34229 4.66779 9.52157 3.92657 9.88577L4.0326 10.0865C4.73541 9.74115 5.55194 9.56566 6.67039 9.47755C7.79021 9.38931 9.20239 9.38922 11.0947 9.38922V9.16397ZM0.410477 19.6923C0.410477 17.8675 0.41057 16.5057 0.502066 15.4258C0.593444 14.3473 0.775419 13.5599 1.13352 12.8821L0.925392 12.7799C0.54772 13.4947 0.361809 14.315 0.269251 15.4075C0.176798 16.4987 0.176891 17.8712 0.176891 19.6923H0.410477ZM3.92657 9.88577C2.63437 10.5207 1.5838 11.5338 0.925392 12.7799L1.13352 12.8821C1.76952 11.6784 2.78437 10.6998 4.0326 10.0865L3.92657 9.88577Z" fill="url(#paint0_linear_22253_10192)"/>
<path d="M51.3399 31.5625V28.6828H43.6471L51.1726 18.8224V16.196H39.2035V19.0758H46.729L39.2035 28.9131V31.5625H51.3399ZM57.7512 31.839C59.5429 31.839 61.3587 31.3091 62.5054 30.2954L61.1437 28.3602C60.4031 29.0514 59.0651 29.443 58.0857 29.443C56.1266 29.443 54.98 28.3142 54.765 26.9549H63.3416V26.2637C63.3416 22.6467 61.0242 20.1586 57.5602 20.1586C54.072 20.1586 51.5875 22.7619 51.5875 25.9873C51.5875 29.5582 54.2393 31.839 57.7512 31.839ZM60.4269 24.9275H54.741C54.8605 23.8217 55.6728 22.5546 57.5602 22.5546C59.5669 22.5546 60.3314 23.8678 60.4269 24.9275ZM67.2705 31.5625V24.052C67.7961 23.407 68.7039 22.7619 69.8985 22.7619C71.1886 22.7619 72.0247 23.2918 72.0247 24.8354V31.5625H75.0827V23.7065C75.0827 21.5409 73.8643 20.1586 71.3079 20.1586C69.4445 20.1586 68.0111 21.034 67.2705 21.8634V20.4351H64.2364V31.5625H67.2705ZM83.8331 31.839C88.9218 31.839 92.0037 28.5215 92.0037 23.0384H83.3076V25.9182H88.2767C87.7751 27.5308 86.4133 28.9362 84.1437 28.9362C81.2291 28.9362 79.1267 26.7936 79.1267 23.8908C79.1267 20.9879 81.2291 18.8454 84.1437 18.8454C85.816 18.8454 87.1778 19.767 87.9184 20.8497L90.7136 19.3752C89.5191 17.5553 87.4406 15.9426 84.1437 15.9426C79.4612 15.9426 75.6387 19.0297 75.6387 23.8908C75.6387 28.7289 79.4611 31.839 83.8331 31.839ZM98.4497 31.839C102.272 31.839 104.566 29.1435 104.566 25.9873C104.566 22.8311 102.272 20.1586 98.4497 20.1586C94.6512 20.1586 92.3577 22.8311 92.3577 25.9873C92.3577 29.1435 94.6512 31.839 98.4497 31.839ZM98.4497 29.2357C96.5625 29.2357 95.5112 27.7382 95.5112 25.9873C95.5112 24.2594 96.5625 22.7619 98.4497 22.7619C100.361 22.7619 101.412 24.2594 101.412 25.9873C101.412 27.7382 100.361 29.2357 98.4497 29.2357Z" fill="white"/>
<defs>
<linearGradient id="paint0_linear_22253_10192" x1="15.4767" y1="9.2766" x2="15.4767" y2="38.5594" gradientUnits="userSpaceOnUse">
<stop stop-color="#E7F8F8"/>
<stop offset="1" stop-color="#E6F8F8"/>
</linearGradient>
</defs>
</svg>
